<svg id="图层_1" data-name="图层 1" xmlns="http://www.w3.org/2000/svg" xmlns:xlink="http://www.w3.org/1999/xlink" viewBox="0 0 740.59 740.5"><defs><style>.cls-1{fill:none;}.cls-2{fill:#ffe0b2;}.cls-3{fill:#ffb74d;}.cls-4{clip-path:url(#clip-path);}.cls-5{fill:#1c4f69;}</style><clipPath id="clip-path" transform="translate(0 -13.83)"><rect class="cls-1" y="13.54" width="740.9" height="741.71"/></clipPath></defs><title>groupsets_</title><path class="cls-2" d="M145.91,341.81a66.62,66.62,0,1,0,0,94.22,66.55,66.55,0,0,0,0-94.22ZM483.39,206a66.66,66.66,0,0,0,53.45,113.47,66.83,66.83,0,0,1,59.35,59.42,66.63,66.63,0,1,0,60.09-60.09,66.75,66.75,0,0,1-59.42-59.35A66.66,66.66,0,0,0,483.39,206Zm-285.7,83.3a66.66,66.66,0,0,0,113.47-53.47,66.83,66.83,0,0,1,59.43-59.34,66.62,66.62,0,1,0-60.1-60.09,66.72,66.72,0,0,1-59.34,59.42,66.66,66.66,0,0,0-53.46,113.48Zm0,0" transform="translate(0 -13.83)"/><path class="cls-2" d="M408.24,171.68a75.71,75.71,0,0,0,45.31-45.3s4.45,17.73,20.51,33.79a81.67,81.67,0,0,0,33.78,20.51,75.72,75.72,0,0,0-45.3,45.3,89.4,89.4,0,0,0-21-33.2,88.37,88.37,0,0,0-33.29-21.1ZM345,345.93A66.66,66.66,0,0,0,398.41,459.4a66.81,66.81,0,0,1,59.34,59.42,66.62,66.62,0,1,0,60.1-60.1,66.73,66.73,0,0,1-59.43-59.34A66.65,66.65,0,0,0,345,345.93Zm-80.1-31.27a75.71,75.71,0,0,0,45.3-45.31s4.46,17.74,20.51,33.79,33.79,20.51,33.79,20.51a75.74,75.74,0,0,0-45.3,45.3,89.43,89.43,0,0,0-21-33.2,88.19,88.19,0,0,0-33.28-21.09Zm0,0" transform="translate(0 -13.83)"/><path class="cls-3" d="M57.58,380.05a21.18,21.18,0,1,0,10.59-18.34,21.15,21.15,0,0,0-10.59,18.34Zm0,0" transform="translate(0 -13.83)"/><path class="cls-3" d="M203.91,234.22A21.19,21.19,0,1,0,225.1,213a21.18,21.18,0,0,0-21.19,21.18Zm0,0" transform="translate(0 -13.83)"/><path class="cls-3" d="M345.62,92.84a21.19,21.19,0,1,0,21.19-21.18,21.19,21.19,0,0,0-21.19,21.18Zm0,0" transform="translate(0 -13.83)"/><path class="cls-2" d="M426.4,714.08A66.66,66.66,0,0,0,372.94,600.6a66.8,66.8,0,0,1-59.34-59.42,66.62,66.62,0,1,0-60.1,60.1,66.73,66.73,0,0,1,59.43,59.34A66.65,66.65,0,0,0,426.4,714.08Zm0,0" transform="translate(0 -13.83)"/><g class="cls-4"><path class="cls-2" d="M450.27,654a72,72,0,0,0-43.12-43.12,78.93,78.93,0,0,0,51.69-51.69A72,72,0,0,0,502,602.28a85.12,85.12,0,0,0-31.6,20A84,84,0,0,0,450.27,654Zm0,0" transform="translate(0 -13.83)"/><path class="cls-5" d="M657.8,466.79a82.66,82.66,0,0,1-82.46-89.26,60.13,60.13,0,0,0-52.11-52.28A82.74,82.74,0,1,1,599,249.43a60.06,60.06,0,0,0,52.28,52.12,82.75,82.75,0,1,1,6.48,165.24ZM522.22,302.47h2.27a83,83,0,0,1,73.63,73.8v2.27a59.91,59.91,0,1,0,54-54.05H650a83,83,0,0,1-73.8-73.63v-2.27a60,60,0,1,0-54,53.88ZM229.05,320.54a82.71,82.71,0,1,1,6.63-165.16A60,60,0,0,0,287.8,103.1a82.73,82.73,0,1,1,76,75.9,60.11,60.11,0,0,0-52.28,52.11,82.82,82.82,0,0,1-82.45,89.43ZM229,177.9a59.9,59.9,0,1,0,59.68,54.22v-2.27a83,83,0,0,1,73.79-73.63h2.19a60,60,0,0,0,65.56-59.68A59.91,59.91,0,0,0,327.89,54.18a60.1,60.1,0,0,0-17.32,48v2.19A83,83,0,0,1,237,178.15h-2.27c-1.94-.16-3.79-.25-5.72-.25Zm0,0" transform="translate(0 -13.83)"/></g><path class="cls-5" d="M458.93,226.82l-21.69-.59a84.63,84.63,0,0,0-50.51-50.51l-.51-21.6a69.11,69.11,0,0,0,41.61-41.61l21.77,1.1a76.57,76.57,0,0,0,18.91,30.84c14.46,14.46,30.68,18.91,30.85,18.91l1.09,21.77a69.78,69.78,0,0,0-41.52,41.69Zm-43.62-62.2a106.21,106.21,0,0,1,18.4,14.71,109.24,109.24,0,0,1,14.71,18.41,94.1,94.1,0,0,1,22.44-22.61,100.63,100.63,0,0,1-18.4-14.54,103.35,103.35,0,0,1-14.54-18.41,91.13,91.13,0,0,1-22.61,22.44ZM516.59,608.08a82.66,82.66,0,0,1-82.46-89.26A60.13,60.13,0,0,0,382,466.54a82.72,82.72,0,1,1,75.82-75.82,60,60,0,0,0,52.27,52.12,82.75,82.75,0,1,1,6.48,165.24ZM381,443.76h2.27a83,83,0,0,1,73.63,73.8v2.19a59.91,59.91,0,1,0,54-54.05h-2.18A83,83,0,0,1,435,392.07V389.8a59.91,59.91,0,1,0-54,54Zm0,0" transform="translate(0 -13.83)"/><g class="cls-4"><path class="cls-5" d="M317.72,368.11,296,367.53A84.68,84.68,0,0,0,245.52,317l-.51-21.6a69.11,69.11,0,0,0,41.61-41.61l21.77,1.1a76.57,76.57,0,0,0,18.91,30.84c14.46,14.46,30.68,18.92,30.85,18.92l1.09,21.77a69.31,69.31,0,0,0-41.52,41.68ZM274.1,305.83a106.21,106.21,0,0,1,18.4,14.71A109.24,109.24,0,0,1,307.21,339a94.1,94.1,0,0,1,22.44-22.61,101.07,101.07,0,0,1-18.4-14.54,103.89,103.89,0,0,1-14.55-18.41,92.28,92.28,0,0,1-22.6,22.44Zm96.15,448.51A82.68,82.68,0,0,1,287.8,665a60.14,60.14,0,0,0-52.28-52.2,82.73,82.73,0,1,1,75.89-75.9,60.14,60.14,0,0,0,52.12,52.28,82.72,82.72,0,1,1,6.72,165.17ZM234.59,590h2.19a83,83,0,0,1,73.79,73.64v2.27a59.91,59.91,0,1,0,54-54h-2.27a83,83,0,0,1-73.63-73.8V536a59.91,59.91,0,1,0-54,54Zm0,0" transform="translate(0 -13.83)"/><path class="cls-5" d="M427.91,655.66a69.12,69.12,0,0,0-41.6-41.61l1.09-21.77a76.64,76.64,0,0,0,30.85-18.91c14.45-14.46,18.91-30.68,18.91-30.85l21.77-1.09A69.12,69.12,0,0,0,500.53,583l-.59,21.68a84.68,84.68,0,0,0-50.51,50.52Zm-12-51.69a91,91,0,0,1,22.45,22.61A105.32,105.32,0,0,1,453,608.17a109.24,109.24,0,0,1,18.41-14.71A94.1,94.1,0,0,1,448.84,571a100.81,100.81,0,0,1-32.95,33ZM82.71,466.79a82.7,82.7,0,1,1,58.5-24.2,82.13,82.13,0,0,1-58.5,24.2Zm0-142.63a60,60,0,1,0,42.36,17.56,59.52,59.52,0,0,0-42.36-17.56Zm0,0" transform="translate(0 -13.83)"/></g><path class="cls-3" d="M204.92,525.46a21.18,21.18,0,1,0,21.18-21.18,21.18,21.18,0,0,0-21.18,21.18Zm0,0" transform="translate(0 -13.83)"/><path class="cls-3" d="M351.25,379.71a21.19,21.19,0,1,0,21.19-21.18,21.19,21.19,0,0,0-21.19,21.18Zm0,0" transform="translate(0 -13.83)"/><path class="cls-3" d="M493,238.34a21.18,21.18,0,1,0,21.18-21.19A21.18,21.18,0,0,0,493,238.34Zm0,0" transform="translate(0 -13.83)"/><path class="cls-3" d="M345,666.5a21.19,21.19,0,1,0,21.18-21.18A21.17,21.17,0,0,0,345,666.5Zm0,0" transform="translate(0 -13.83)"/><path class="cls-3" d="M491.2,520.76a21.18,21.18,0,1,0,21.18-21.19,21.19,21.19,0,0,0-21.18,21.19Zm0,0" transform="translate(0 -13.83)"/><path class="cls-3" d="M633,379.29a21.18,21.18,0,1,0,21.18-21.18A21.18,21.18,0,0,0,633,379.29Zm0,0" transform="translate(0 -13.83)"/><path class="cls-5" d="M82.71,414.51a30.43,30.43,0,1,1,30.42-30.43,30.42,30.42,0,0,1-30.42,30.43Zm0-53.2a22.86,22.86,0,1,0,22.78,22.77,22.88,22.88,0,0,0-22.78-22.77ZM228.79,560.85a30.43,30.43,0,1,1,30.43-30.43,30.42,30.42,0,0,1-30.43,30.43Zm0-53.29a22.86,22.86,0,1,0,22.86,22.86,22.88,22.88,0,0,0-22.86-22.86Zm141.29,194.5a30.43,30.43,0,1,1,30.43-30.43,30.42,30.42,0,0,1-30.43,30.43Zm0-53.29A22.86,22.86,0,1,0,393,671.63a22.89,22.89,0,0,0-22.87-22.86Zm0,0" transform="translate(0 -13.83)"/><path class="cls-5" d="M229.13,268.26a30.43,30.43,0,1,1,30.43-30.43,30.42,30.42,0,0,1-30.43,30.43Zm0-53.29A22.87,22.87,0,1,0,252,237.83,22.88,22.88,0,0,0,229.13,215ZM375.3,414.51a30.43,30.43,0,1,1,30.42-30.43,30.42,30.42,0,0,1-30.42,30.43Zm0-53.29a22.87,22.87,0,1,0,22.86,22.86,22.89,22.89,0,0,0-22.86-22.86ZM516.59,555.8A30.43,30.43,0,1,1,547,525.38a30.42,30.42,0,0,1-30.42,30.42Zm0-53.28a22.86,22.86,0,1,0,22.86,22.86,22.89,22.89,0,0,0-22.86-22.86Zm0,0" transform="translate(0 -13.83)"/><path class="cls-5" d="M370.5,126.88a30.43,30.43,0,1,1,30.43-30.42,30.41,30.41,0,0,1-30.43,30.42Zm0-53.29a22.87,22.87,0,1,0,22.87,22.87A22.89,22.89,0,0,0,370.5,73.59ZM516.67,273.14a30.43,30.43,0,1,1,30.43-30.43,30.42,30.42,0,0,1-30.43,30.43Zm0-53.3a22.87,22.87,0,1,0,22.86,22.87,22.89,22.89,0,0,0-22.86-22.87ZM657.88,414.43A30.43,30.43,0,1,1,688.31,384a30.42,30.42,0,0,1-30.43,30.43Zm0-53.29A22.86,22.86,0,1,0,680.74,384a22.88,22.88,0,0,0-22.86-22.86Zm0,0" transform="translate(0 -13.83)"/></svg>